<svg width="1000" height="320" viewBox="0 0 1000 320" xmlns="http://www.w3.org/2000/svg" role="img" aria-labelledby="title desc">
<title id="title">Miles Low GitHub velocity, languages, and model split</title>
<desc id="desc">Last 365 days of lines through 2026-09-05, with a language summary and model usage donut chart.</desc>
<style>
  text { font-family: ui-monospace, SFMono-Regular, Menlo, Consolas, "Liberation Mono", monospace; fill: #111; }
  .title { font-size: 28px; font-weight: 700; }
  .body { font-size: 14px; }
  .small { font-size: 12px; }
  .tiny { font-size: 11px; fill: #666; }
  .axis { stroke: #111; stroke-width: 1; shape-rendering: crispEdges; }
  .bar { stroke: #111; stroke-width: 2; opacity: 0.42; shape-rendering: crispEdges; }
</style>
<rect width="1000" height="320" fill="#fff"/>
<text x="54" y="52" class="title">2.25M lines / 365 days</text>
<text x="54" y="84" class="body">4,231 commits · 365 active days · 21.39B tokens</text>
<text x="54" y="122" class="small">languages</text>
<text x="54" y="144" class="small">TypeScript</text><text x="150" y="144" class="small">1.04M</text><rect x="198" y="135" width="170" height="8" fill="#111"/>
<text x="54" y="162" class="small">Python</text><text x="150" y="162" class="small">579.1K</text><rect x="198" y="153" width="95" height="8" fill="#111"/>
<text x="54" y="180" class="small">JavaScript</text><text x="150" y="180" class="small">84.9K</text><rect x="198" y="171" width="14" height="8" fill="#111"/>
<text x="384" y="144" class="small">CSS</text><text x="440" y="144" class="small">64.7K</text><rect x="480" y="135" width="11" height="8" fill="#111"/>
<text x="384" y="162" class="small">Shell</text><text x="440" y="162" class="small">57.8K</text><rect x="480" y="153" width="9" height="8" fill="#111"/>
<text x="384" y="180" class="small">Other</text><text x="440" y="180" class="small">206.0K</text><rect x="480" y="171" width="34" height="8" fill="#111"/>
<text x="660" y="62" class="body">model breakdown</text>
<circle cx="718" cy="132" r="48" fill="none" stroke="#111" stroke-width="22" pathLength="100" stroke-dasharray="54.5 45.5" stroke-dashoffset="-0.0" transform="rotate(-90 718 132)"><title>gpt-5.6-sol: 54.5%</title></circle>
<circle cx="718" cy="132" r="48" fill="none" stroke="#444" stroke-width="22" pathLength="100" stroke-dasharray="20.3 79.7" stroke-dashoffset="-54.5" transform="rotate(-90 718 132)"><title>gpt-5.6-luna: 20.3%</title></circle>
<circle cx="718" cy="132" r="48" fill="none" stroke="#666" stroke-width="22" pathLength="100" stroke-dasharray="6.5 93.5" stroke-dashoffset="-74.9" transform="rotate(-90 718 132)"><title>gpt-5.2-codex: 6.5%</title></circle>
<circle cx="718" cy="132" r="48" fill="none" stroke="#888" stroke-width="22" pathLength="100" stroke-dasharray="6.2 93.8" stroke-dashoffset="-81.4" transform="rotate(-90 718 132)"><title>gpt-5.5: 6.2%</title></circle>
<circle cx="718" cy="132" r="48" fill="none" stroke="#aaa" stroke-width="22" pathLength="100" stroke-dasharray="5.6 94.4" stroke-dashoffset="-87.6" transform="rotate(-90 718 132)"><title>gpt-5.4: 5.6%</title></circle>
<circle cx="718" cy="132" r="48" fill="none" stroke="#ccc" stroke-width="22" pathLength="100" stroke-dasharray="6.8 93.2" stroke-dashoffset="-93.2" transform="rotate(-90 718 132)"><title>other models: 6.8%</title></circle>
<text x="806" y="84" class="tiny">gpt-5.6-sol 54.5%</text>
<text x="806" y="104" class="tiny">gpt-5.6-luna 20.3%</text>
<text x="806" y="124" class="tiny">gpt-5.2-codex 6.5%</text>
<text x="806" y="144" class="tiny">gpt-5.5 6.2%</text>
<text x="806" y="164" class="tiny">gpt-5.4 5.6%</text>
<text x="806" y="184" class="tiny">other models 6.8%</text>
<line x1="54.00" y1="284.0" x2="54.00" y2="276.9" class="bar"><title>2025-09-06 to 2025-09-07: 10,534 lines</title></line>
<line x1="59.00" y1="284.0" x2="59.00" y2="276.9" class="bar"><title>2025-09-08 to 2025-09-09: 10,534 lines</title></line>
<line x1="64.00" y1="284.0" x2="64.00" y2="276.9" class="bar"><title>2025-09-10 to 2025-09-11: 10,534 lines</title></line>
<line x1="69.00" y1="284.0" x2="69.00" y2="276.9" class="bar"><title>2025-09-12 to 2025-09-13: 10,534 lines</title></line>
<line x1="74.00" y1="284.0" x2="74.00" y2="276.9" class="bar"><title>2025-09-14 to 2025-09-15: 10,534 lines</title></line>
<line x1="79.00" y1="284.0" x2="79.00" y2="276.9" class="bar"><title>2025-09-16 to 2025-09-17: 10,534 lines</title></line>
<line x1="84.00" y1="284.0" x2="84.00" y2="276.9" class="bar"><title>2025-09-18 to 2025-09-19: 10,534 lines</title></line>
<line x1="89.00" y1="284.0" x2="89.00" y2="276.9" class="bar"><title>2025-09-20 to 2025-09-21: 10,534 lines</title></line>
<line x1="94.00" y1="284.0" x2="94.00" y2="276.9" class="bar"><title>2025-09-22 to 2025-09-23: 10,534 lines</title></line>
<line x1="99.00" y1="284.0" x2="99.00" y2="276.9" class="bar"><title>2025-09-24 to 2025-09-25: 10,534 lines</title></line>
<line x1="104.00" y1="284.0" x2="104.00" y2="276.9" class="bar"><title>2025-09-26 to 2025-09-27: 10,534 lines</title></line>
<line x1="109.00" y1="284.0" x2="109.00" y2="276.9" class="bar"><title>2025-09-28 to 2025-09-29: 10,534 lines</title></line>
<line x1="114.00" y1="284.0" x2="114.00" y2="276.9" class="bar"><title>2025-09-30 to 2025-10-01: 10,534 lines</title></line>
<line x1="119.00" y1="284.0" x2="119.00" y2="276.9" class="bar"><title>2025-10-02 to 2025-10-03: 10,534 lines</title></line>
<line x1="124.00" y1="284.0" x2="124.00" y2="276.9" class="bar"><title>2025-10-04 to 2025-10-05: 10,534 lines</title></line>
<line x1="129.00" y1="284.0" x2="129.00" y2="276.9" class="bar"><title>2025-10-06 to 2025-10-07: 10,534 lines</title></line>
<line x1="134.00" y1="284.0" x2="134.00" y2="276.9" class="bar"><title>2025-10-08 to 2025-10-09: 10,534 lines</title></line>
<line x1="139.00" y1="284.0" x2="139.00" y2="276.9" class="bar"><title>2025-10-10 to 2025-10-11: 10,534 lines</title></line>
<line x1="144.00" y1="284.0" x2="144.00" y2="276.9" class="bar"><title>2025-10-12 to 2025-10-13: 10,534 lines</title></line>
<line x1="149.00" y1="284.0" x2="149.00" y2="276.9" class="bar"><title>2025-10-14 to 2025-10-15: 10,534 lines</title></line>
<line x1="154.00" y1="284.0" x2="154.00" y2="276.9" class="bar"><title>2025-10-16 to 2025-10-17: 10,534 lines</title></line>
<line x1="159.00" y1="284.0" x2="159.00" y2="276.9" class="bar"><title>2025-10-18 to 2025-10-19: 10,534 lines</title></line>
<line x1="164.00" y1="284.0" x2="164.00" y2="276.9" class="bar"><title>2025-10-20 to 2025-10-21: 10,534 lines</title></line>
<line x1="169.00" y1="284.0" x2="169.00" y2="276.9" class="bar"><title>2025-10-22 to 2025-10-23: 10,534 lines</title></line>
<line x1="174.00" y1="284.0" x2="174.00" y2="276.9" class="bar"><title>2025-10-24 to 2025-10-25: 10,534 lines</title></line>
<line x1="179.00" y1="284.0" x2="179.00" y2="276.9" class="bar"><title>2025-10-26 to 2025-10-27: 10,534 lines</title></line>
<line x1="184.00" y1="284.0" x2="184.00" y2="276.9" class="bar"><title>2025-10-28 to 2025-10-29: 10,534 lines</title></line>
<line x1="189.00" y1="284.0" x2="189.00" y2="276.9" class="bar"><title>2025-10-30 to 2025-10-31: 10,534 lines</title></line>
<line x1="194.00" y1="284.0" x2="194.00" y2="276.9" class="bar"><title>2025-11-01 to 2025-11-02: 10,534 lines</title></line>
<line x1="199.00" y1="284.0" x2="199.00" y2="276.9" class="bar"><title>2025-11-03 to 2025-11-04: 10,534 lines</title></line>
<line x1="204.00" y1="284.0" x2="204.00" y2="276.9" class="bar"><title>2025-11-05 to 2025-11-06: 10,534 lines</title></line>
<line x1="209.00" y1="284.0" x2="209.00" y2="276.9" class="bar"><title>2025-11-07 to 2025-11-08: 10,534 lines</title></line>
<line x1="214.00" y1="284.0" x2="214.00" y2="276.9" class="bar"><title>2025-11-09 to 2025-11-10: 10,534 lines</title></line>
<line x1="219.00" y1="284.0" x2="219.00" y2="276.9" class="bar"><title>2025-11-11 to 2025-11-12: 10,534 lines</title></line>
<line x1="224.00" y1="284.0" x2="224.00" y2="276.9" class="bar"><title>2025-11-13 to 2025-11-14: 10,534 lines</title></line>
<line x1="229.00" y1="284.0" x2="229.00" y2="276.9" class="bar"><title>2025-11-15 to 2025-11-16: 10,534 lines</title></line>
<line x1="234.00" y1="284.0" x2="234.00" y2="276.9" class="bar"><title>2025-11-17 to 2025-11-18: 10,534 lines</title></line>
<line x1="239.00" y1="284.0" x2="239.00" y2="276.9" class="bar"><title>2025-11-19 to 2025-11-20: 10,534 lines</title></line>
<line x1="244.00" y1="284.0" x2="244.00" y2="276.9" class="bar"><title>2025-11-21 to 2025-11-22: 10,534 lines</title></line>
<line x1="249.00" y1="284.0" x2="249.00" y2="276.9" class="bar"><title>2025-11-23 to 2025-11-24: 10,534 lines</title></line>
<line x1="254.00" y1="284.0" x2="254.00" y2="276.9" class="bar"><title>2025-11-25 to 2025-11-26: 10,534 lines</title></line>
<line x1="259.00" y1="284.0" x2="259.00" y2="276.9" class="bar"><title>2025-11-27 to 2025-11-28: 10,534 lines</title></line>
<line x1="264.00" y1="284.0" x2="264.00" y2="276.9" class="bar"><title>2025-11-29 to 2025-11-30: 10,534 lines</title></line>
<line x1="269.00" y1="284.0" x2="269.00" y2="276.9" class="bar"><title>2025-12-01 to 2025-12-02: 10,534 lines</title></line>
<line x1="274.00" y1="284.0" x2="274.00" y2="276.9" class="bar"><title>2025-12-03 to 2025-12-04: 10,534 lines</title></line>
<line x1="279.00" y1="284.0" x2="279.00" y2="276.9" class="bar"><title>2025-12-05 to 2025-12-06: 10,534 lines</title></line>
<line x1="284.00" y1="284.0" x2="284.00" y2="276.9" class="bar"><title>2025-12-07 to 2025-12-08: 10,534 lines</title></line>
<line x1="289.00" y1="284.0" x2="289.00" y2="276.9" class="bar"><title>2025-12-09 to 2025-12-10: 10,534 lines</title></line>
<line x1="294.00" y1="284.0" x2="294.00" y2="276.9" class="bar"><title>2025-12-11 to 2025-12-12: 10,534 lines</title></line>
<line x1="299.00" y1="284.0" x2="299.00" y2="276.9" class="bar"><title>2025-12-13 to 2025-12-14: 10,534 lines</title></line>
<line x1="304.00" y1="284.0" x2="304.00" y2="276.9" class="bar"><title>2025-12-15 to 2025-12-16: 10,534 lines</title></line>
<line x1="309.00" y1="284.0" x2="309.00" y2="276.9" class="bar"><title>2025-12-17 to 2025-12-18: 10,534 lines</title></line>
<line x1="314.00" y1="284.0" x2="314.00" y2="276.9" class="bar"><title>2025-12-19 to 2025-12-20: 10,534 lines</title></line>
<line x1="319.00" y1="284.0" x2="319.00" y2="276.9" class="bar"><title>2025-12-21 to 2025-12-22: 10,534 lines</title></line>
<line x1="324.00" y1="284.0" x2="324.00" y2="276.9" class="bar"><title>2025-12-23 to 2025-12-24: 10,534 lines</title></line>
<line x1="329.00" y1="284.0" x2="329.00" y2="276.9" class="bar"><title>2025-12-25 to 2025-12-26: 10,534 lines</title></line>
<line x1="334.00" y1="284.0" x2="334.00" y2="276.9" class="bar"><title>2025-12-27 to 2025-12-28: 10,534 lines</title></line>
<line x1="339.00" y1="284.0" x2="339.00" y2="276.9" class="bar"><title>2025-12-29 to 2025-12-30: 10,534 lines</title></line>
<line x1="344.00" y1="284.0" x2="344.00" y2="276.9" class="bar"><title>2025-12-31 to 2026-01-01: 10,534 lines</title></line>
<line x1="349.00" y1="284.0" x2="349.00" y2="276.9" class="bar"><title>2026-01-02 to 2026-01-03: 10,534 lines</title></line>
<line x1="354.00" y1="284.0" x2="354.00" y2="276.9" class="bar"><title>2026-01-04 to 2026-01-05: 10,534 lines</title></line>
<line x1="359.00" y1="284.0" x2="359.00" y2="276.9" class="bar"><title>2026-01-06 to 2026-01-07: 10,534 lines</title></line>
<line x1="364.00" y1="284.0" x2="364.00" y2="276.9" class="bar"><title>2026-01-08 to 2026-01-09: 10,534 lines</title></line>
<line x1="369.00" y1="284.0" x2="369.00" y2="276.9" class="bar"><title>2026-01-10 to 2026-01-11: 10,534 lines</title></line>
<line x1="374.00" y1="284.0" x2="374.00" y2="276.9" class="bar"><title>2026-01-12 to 2026-01-13: 10,534 lines</title></line>
<line x1="379.00" y1="284.0" x2="379.00" y2="276.9" class="bar"><title>2026-01-14 to 2026-01-15: 10,534 lines</title></line>
<line x1="384.00" y1="284.0" x2="384.00" y2="276.9" class="bar"><title>2026-01-16 to 2026-01-17: 10,534 lines</title></line>
<line x1="389.00" y1="284.0" x2="389.00" y2="276.9" class="bar"><title>2026-01-18 to 2026-01-19: 10,534 lines</title></line>
<line x1="394.00" y1="284.0" x2="394.00" y2="276.9" class="bar"><title>2026-01-20 to 2026-01-21: 10,534 lines</title></line>
<line x1="399.00" y1="284.0" x2="399.00" y2="276.9" class="bar"><title>2026-01-22 to 2026-01-23: 10,534 lines</title></line>
<line x1="404.00" y1="284.0" x2="404.00" y2="276.9" class="bar"><title>2026-01-24 to 2026-01-25: 10,534 lines</title></line>
<line x1="409.00" y1="284.0" x2="409.00" y2="276.9" class="bar"><title>2026-01-26 to 2026-01-27: 10,534 lines</title></line>
<line x1="414.00" y1="284.0" x2="414.00" y2="276.9" class="bar"><title>2026-01-28 to 2026-01-29: 10,534 lines</title></line>
<line x1="419.00" y1="284.0" x2="419.00" y2="276.9" class="bar"><title>2026-01-30 to 2026-01-31: 10,534 lines</title></line>
<line x1="424.00" y1="284.0" x2="424.00" y2="276.9" class="bar"><title>2026-02-01 to 2026-02-02: 10,534 lines</title></line>
<line x1="429.00" y1="284.0" x2="429.00" y2="276.9" class="bar"><title>2026-02-03 to 2026-02-04: 10,534 lines</title></line>
<line x1="434.00" y1="284.0" x2="434.00" y2="276.9" class="bar"><title>2026-02-05 to 2026-02-06: 10,534 lines</title></line>
<line x1="439.00" y1="284.0" x2="439.00" y2="276.9" class="bar"><title>2026-02-07 to 2026-02-08: 10,534 lines</title></line>
<line x1="444.00" y1="284.0" x2="444.00" y2="276.9" class="bar"><title>2026-02-09 to 2026-02-10: 10,534 lines</title></line>
<line x1="449.00" y1="284.0" x2="449.00" y2="276.9" class="bar"><title>2026-02-11 to 2026-02-12: 10,534 lines</title></line>
<line x1="454.00" y1="284.0" x2="454.00" y2="276.9" class="bar"><title>2026-02-13 to 2026-02-14: 10,534 lines</title></line>
<line x1="459.00" y1="284.0" x2="459.00" y2="276.9" class="bar"><title>2026-02-15 to 2026-02-16: 10,534 lines</title></line>
<line x1="464.00" y1="284.0" x2="464.00" y2="276.9" class="bar"><title>2026-02-17 to 2026-02-18: 10,534 lines</title></line>
<line x1="469.00" y1="284.0" x2="469.00" y2="276.9" class="bar"><title>2026-02-19 to 2026-02-20: 10,534 lines</title></line>
<line x1="474.00" y1="284.0" x2="474.00" y2="276.9" class="bar"><title>2026-02-21 to 2026-02-22: 10,534 lines</title></line>
<line x1="479.00" y1="284.0" x2="479.00" y2="276.9" class="bar"><title>2026-02-23 to 2026-02-24: 10,534 lines</title></line>
<line x1="484.00" y1="284.0" x2="484.00" y2="276.9" class="bar"><title>2026-02-25 to 2026-02-26: 10,534 lines</title></line>
<line x1="489.00" y1="284.0" x2="489.00" y2="276.9" class="bar"><title>2026-02-27 to 2026-02-28: 10,534 lines</title></line>
<line x1="494.00" y1="284.0" x2="494.00" y2="276.9" class="bar"><title>2026-03-01 to 2026-03-02: 10,534 lines</title></line>
<line x1="499.00" y1="284.0" x2="499.00" y2="276.9" class="bar"><title>2026-03-03 to 2026-03-04: 10,534 lines</title></line>
<line x1="504.00" y1="284.0" x2="504.00" y2="276.9" class="bar"><title>2026-03-05 to 2026-03-06: 10,534 lines</title></line>
<line x1="509.00" y1="284.0" x2="509.00" y2="276.9" class="bar"><title>2026-03-07 to 2026-03-08: 10,534 lines</title></line>
<line x1="514.00" y1="284.0" x2="514.00" y2="276.9" class="bar"><title>2026-03-09 to 2026-03-10: 10,534 lines</title></line>
<line x1="519.00" y1="284.0" x2="519.00" y2="276.9" class="bar"><title>2026-03-11 to 2026-03-12: 10,534 lines</title></line>
<line x1="524.00" y1="284.0" x2="524.00" y2="276.9" class="bar"><title>2026-03-13 to 2026-03-14: 10,534 lines</title></line>
<line x1="529.00" y1="284.0" x2="529.00" y2="276.9" class="bar"><title>2026-03-15 to 2026-03-16: 10,534 lines</title></line>
<line x1="534.00" y1="284.0" x2="534.00" y2="276.9" class="bar"><title>2026-03-17 to 2026-03-18: 10,534 lines</title></line>
<line x1="539.00" y1="284.0" x2="539.00" y2="276.9" class="bar"><title>2026-03-19 to 2026-03-20: 10,534 lines</title></line>
<line x1="544.00" y1="284.0" x2="544.00" y2="276.9" class="bar"><title>2026-03-21 to 2026-03-22: 10,534 lines</title></line>
<line x1="549.00" y1="284.0" x2="549.00" y2="276.9" class="bar"><title>2026-03-23 to 2026-03-24: 10,534 lines</title></line>
<line x1="554.00" y1="284.0" x2="554.00" y2="276.9" class="bar"><title>2026-03-25 to 2026-03-26: 10,534 lines</title></line>
<line x1="559.00" y1="284.0" x2="559.00" y2="276.9" class="bar"><title>2026-03-27 to 2026-03-28: 10,534 lines</title></line>
<line x1="564.00" y1="284.0" x2="564.00" y2="276.9" class="bar"><title>2026-03-29 to 2026-03-30: 10,534 lines</title></line>
<line x1="569.00" y1="284.0" x2="569.00" y2="276.9" class="bar"><title>2026-03-31 to 2026-04-01: 10,534 lines</title></line>
<line x1="574.00" y1="284.0" x2="574.00" y2="276.9" class="bar"><title>2026-04-02 to 2026-04-03: 10,534 lines</title></line>
<line x1="579.00" y1="284.0" x2="579.00" y2="276.9" class="bar"><title>2026-04-04 to 2026-04-05: 10,534 lines</title></line>
<line x1="584.00" y1="284.0" x2="584.00" y2="276.9" class="bar"><title>2026-04-06 to 2026-04-07: 10,534 lines</title></line>
<line x1="589.00" y1="284.0" x2="589.00" y2="276.9" class="bar"><title>2026-04-08 to 2026-04-09: 10,534 lines</title></line>
<line x1="594.00" y1="284.0" x2="594.00" y2="276.9" class="bar"><title>2026-04-10 to 2026-04-11: 10,534 lines</title></line>
<line x1="599.00" y1="284.0" x2="599.00" y2="276.9" class="bar"><title>2026-04-12 to 2026-04-13: 10,534 lines</title></line>
<line x1="604.00" y1="284.0" x2="604.00" y2="276.9" class="bar"><title>2026-04-14 to 2026-04-15: 10,534 lines</title></line>
<line x1="609.00" y1="284.0" x2="609.00" y2="276.9" class="bar"><title>2026-04-16 to 2026-04-17: 10,534 lines</title></line>
<line x1="614.00" y1="284.0" x2="614.00" y2="276.9" class="bar"><title>2026-04-18 to 2026-04-19: 10,534 lines</title></line>
<line x1="619.00" y1="284.0" x2="619.00" y2="276.9" class="bar"><title>2026-04-20 to 2026-04-21: 10,534 lines</title></line>
<line x1="624.00" y1="284.0" x2="624.00" y2="276.9" class="bar"><title>2026-04-22 to 2026-04-23: 10,534 lines</title></line>
<line x1="629.00" y1="284.0" x2="629.00" y2="276.9" class="bar"><title>2026-04-24 to 2026-04-25: 10,534 lines</title></line>
<line x1="634.00" y1="284.0" x2="634.00" y2="276.9" class="bar"><title>2026-04-26 to 2026-04-27: 10,534 lines</title></line>
<line x1="639.00" y1="284.0" x2="639.00" y2="276.9" class="bar"><title>2026-04-28 to 2026-04-29: 10,534 lines</title></line>
<line x1="644.00" y1="284.0" x2="644.00" y2="276.9" class="bar"><title>2026-04-30 to 2026-05-01: 10,534 lines</title></line>
<line x1="649.00" y1="284.0" x2="649.00" y2="276.9" class="bar"><title>2026-05-02 to 2026-05-03: 10,534 lines</title></line>
<line x1="654.00" y1="284.0" x2="654.00" y2="276.9" class="bar"><title>2026-05-04 to 2026-05-05: 10,534 lines</title></line>
<line x1="659.00" y1="284.0" x2="659.00" y2="276.9" class="bar"><title>2026-05-06 to 2026-05-07: 10,534 lines</title></line>
<line x1="664.00" y1="284.0" x2="664.00" y2="276.9" class="bar"><title>2026-05-08 to 2026-05-09: 10,534 lines</title></line>
<line x1="669.00" y1="284.0" x2="669.00" y2="276.9" class="bar"><title>2026-05-10 to 2026-05-11: 10,534 lines</title></line>
<line x1="674.00" y1="284.0" x2="674.00" y2="276.9" class="bar"><title>2026-05-12 to 2026-05-13: 10,534 lines</title></line>
<line x1="679.00" y1="284.0" x2="679.00" y2="276.9" class="bar"><title>2026-05-14 to 2026-05-15: 10,534 lines</title></line>
<line x1="684.00" y1="284.0" x2="684.00" y2="276.9" class="bar"><title>2026-05-16 to 2026-05-17: 10,534 lines</title></line>
<line x1="689.00" y1="284.0" x2="689.00" y2="276.9" class="bar"><title>2026-05-18 to 2026-05-19: 10,534 lines</title></line>
<line x1="694.00" y1="284.0" x2="694.00" y2="276.9" class="bar"><title>2026-05-20 to 2026-05-21: 10,534 lines</title></line>
<line x1="699.00" y1="284.0" x2="699.00" y2="276.9" class="bar"><title>2026-05-22 to 2026-05-23: 10,534 lines</title></line>
<line x1="704.00" y1="284.0" x2="704.00" y2="276.9" class="bar"><title>2026-05-24 to 2026-05-25: 10,534 lines</title></line>
<line x1="709.00" y1="284.0" x2="709.00" y2="276.9" class="bar"><title>2026-05-26 to 2026-05-27: 10,534 lines</title></line>
<line x1="714.00" y1="284.0" x2="714.00" y2="276.9" class="bar"><title>2026-05-28 to 2026-05-29: 10,534 lines</title></line>
<line x1="719.00" y1="284.0" x2="719.00" y2="276.9" class="bar"><title>2026-05-30 to 2026-05-31: 10,534 lines</title></line>
<line x1="724.00" y1="284.0" x2="724.00" y2="276.9" class="bar"><title>2026-06-01 to 2026-06-02: 10,534 lines</title></line>
<line x1="729.00" y1="284.0" x2="729.00" y2="276.9" class="bar"><title>2026-06-03 to 2026-06-04: 10,534 lines</title></line>
<line x1="734.00" y1="284.0" x2="734.00" y2="276.9" class="bar"><title>2026-06-05 to 2026-06-06: 10,534 lines</title></line>
<line x1="739.00" y1="284.0" x2="739.00" y2="276.9" class="bar"><title>2026-06-07 to 2026-06-08: 10,534 lines</title></line>
<line x1="744.00" y1="284.0" x2="744.00" y2="276.9" class="bar"><title>2026-06-09 to 2026-06-10: 10,534 lines</title></line>
<line x1="749.00" y1="284.0" x2="749.00" y2="276.9" class="bar"><title>2026-06-11 to 2026-06-12: 10,534 lines</title></line>
<line x1="754.00" y1="284.0" x2="754.00" y2="276.9" class="bar"><title>2026-06-13 to 2026-06-14: 10,534 lines</title></line>
<line x1="759.00" y1="284.0" x2="759.00" y2="276.9" class="bar"><title>2026-06-15 to 2026-06-16: 10,534 lines</title></line>
<line x1="764.00" y1="284.0" x2="764.00" y2="276.9" class="bar"><title>2026-06-17 to 2026-06-18: 10,534 lines</title></line>
<line x1="769.00" y1="284.0" x2="769.00" y2="276.9" class="bar"><title>2026-06-19 to 2026-06-20: 10,534 lines</title></line>
<line x1="774.00" y1="284.0" x2="774.00" y2="276.9" class="bar"><title>2026-06-21 to 2026-06-22: 10,534 lines</title></line>
<line x1="779.00" y1="284.0" x2="779.00" y2="276.9" class="bar"><title>2026-06-23 to 2026-06-24: 10,534 lines</title></line>
<line x1="784.00" y1="284.0" x2="784.00" y2="276.9" class="bar"><title>2026-06-25 to 2026-06-26: 10,534 lines</title></line>
<line x1="789.00" y1="284.0" x2="789.00" y2="276.9" class="bar"><title>2026-06-27 to 2026-06-28: 10,534 lines</title></line>
<line x1="794.00" y1="284.0" x2="794.00" y2="276.9" class="bar"><title>2026-06-29 to 2026-06-30: 10,534 lines</title></line>
<line x1="799.00" y1="284.0" x2="799.00" y2="276.9" class="bar"><title>2026-07-01 to 2026-07-02: 10,534 lines</title></line>
<line x1="804.00" y1="284.0" x2="804.00" y2="276.9" class="bar"><title>2026-07-03 to 2026-07-04: 10,534 lines</title></line>
<line x1="809.00" y1="284.0" x2="809.00" y2="276.9" class="bar"><title>2026-07-05 to 2026-07-06: 10,534 lines</title></line>
<line x1="814.00" y1="284.0" x2="814.00" y2="276.9" class="bar"><title>2026-07-07 to 2026-07-08: 10,534 lines</title></line>
<line x1="819.00" y1="284.0" x2="819.00" y2="276.9" class="bar"><title>2026-07-09 to 2026-07-10: 10,534 lines</title></line>
<line x1="824.00" y1="284.0" x2="824.00" y2="276.9" class="bar"><title>2026-07-11 to 2026-07-12: 10,534 lines</title></line>
<line x1="829.00" y1="284.0" x2="829.00" y2="276.9" class="bar"><title>2026-07-13 to 2026-07-14: 10,534 lines</title></line>
<line x1="834.00" y1="284.0" x2="834.00" y2="276.9" class="bar"><title>2026-07-15 to 2026-07-16: 10,534 lines</title></line>
<line x1="839.00" y1="284.0" x2="839.00" y2="276.9" class="bar"><title>2026-07-17 to 2026-07-18: 10,534 lines</title></line>
<line x1="844.00" y1="284.0" x2="844.00" y2="276.9" class="bar"><title>2026-07-19 to 2026-07-20: 10,534 lines</title></line>
<line x1="849.00" y1="284.0" x2="849.00" y2="276.9" class="bar"><title>2026-07-21 to 2026-07-22: 10,534 lines</title></line>
<line x1="854.00" y1="284.0" x2="854.00" y2="276.9" class="bar"><title>2026-07-23 to 2026-07-24: 10,534 lines</title></line>
<line x1="859.00" y1="284.0" x2="859.00" y2="276.9" class="bar"><title>2026-07-25 to 2026-07-26: 10,534 lines</title></line>
<line x1="864.00" y1="284.0" x2="864.00" y2="276.9" class="bar"><title>2026-07-27 to 2026-07-28: 10,534 lines</title></line>
<line x1="869.00" y1="284.0" x2="869.00" y2="276.9" class="bar"><title>2026-07-29 to 2026-07-30: 10,534 lines</title></line>
<line x1="874.00" y1="284.0" x2="874.00" y2="276.9" class="bar"><title>2026-07-31 to 2026-08-01: 10,534 lines</title></line>
<line x1="879.00" y1="284.0" x2="879.00" y2="276.9" class="bar"><title>2026-08-02 to 2026-08-03: 10,534 lines</title></line>
<line x1="884.00" y1="284.0" x2="884.00" y2="276.9" class="bar"><title>2026-08-04 to 2026-08-05: 10,534 lines</title></line>
<line x1="889.00" y1="284.0" x2="889.00" y2="276.9" class="bar"><title>2026-08-06 to 2026-08-07: 10,534 lines</title></line>
<line x1="894.00" y1="284.0" x2="894.00" y2="276.9" class="bar"><title>2026-08-08 to 2026-08-09: 10,534 lines</title></line>
<line x1="899.00" y1="284.0" x2="899.00" y2="276.9" class="bar"><title>2026-08-10 to 2026-08-11: 10,534 lines</title></line>
<line x1="904.00" y1="284.0" x2="904.00" y2="276.9" class="bar"><title>2026-08-12 to 2026-08-13: 10,534 lines</title></line>
<line x1="909.00" y1="284.0" x2="909.00" y2="276.9" class="bar"><title>2026-08-14 to 2026-08-15: 10,534 lines</title></line>
<line x1="914.00" y1="284.0" x2="914.00" y2="270.1" class="bar"><title>2026-08-16 to 2026-08-17: 20,582 lines</title></line>
<line x1="919.00" y1="284.0" x2="919.00" y2="282.7" class="bar"><title>2026-08-18 to 2026-08-19: 1,909 lines</title></line>
<line x1="924.00" y1="284.0" x2="924.00" y2="278.4" class="bar"><title>2026-08-20 to 2026-08-21: 8,282 lines</title></line>
<line x1="929.00" y1="284.0" x2="929.00" y2="229.9" class="bar"><title>2026-08-22 to 2026-08-23: 80,291 lines</title></line>
<line x1="934.00" y1="284.0" x2="934.00" y2="254.5" class="bar"><title>2026-08-24 to 2026-08-25: 43,734 lines</title></line>
<line x1="939.00" y1="284.0" x2="939.00" y2="253.0" class="bar"><title>2026-08-26 to 2026-08-27: 46,040 lines</title></line>
<line x1="944.00" y1="284.0" x2="944.00" y2="204.0" class="bar"><title>2026-08-28 to 2026-08-29: 118,683 lines</title></line>
<line x1="949.00" y1="284.0" x2="949.00" y2="269.8" class="bar"><title>2026-08-30 to 2026-08-31: 21,061 lines</title></line>
<line x1="954.00" y1="284.0" x2="954.00" y2="254.9" class="bar"><title>2026-09-01 to 2026-09-02: 43,121 lines</title></line>
<line x1="959.00" y1="284.0" x2="959.00" y2="251.6" class="bar"><title>2026-09-03 to 2026-09-04: 48,058 lines</title></line>
<line x1="964.00" y1="284.0" x2="964.00" y2="282.3" class="bar"><title>2026-09-05: 2,511 lines</title></line>
<polyline points="54.0,276.9 59.0,276.9 64.0,276.9 69.0,276.9 74.0,276.9 79.0,276.9 84.0,276.9 89.0,276.9 94.0,276.9 99.0,276.9 104.0,276.9 109.0,276.9 114.0,276.9 119.0,276.9 124.0,276.9 129.0,276.9 134.0,276.9 139.0,276.9 144.0,276.9 149.0,276.9 154.0,276.9 159.0,276.9 164.0,276.9 169.0,276.9 174.0,276.9 179.0,276.9 184.0,276.9 189.0,276.9 194.0,276.9 199.0,276.9 204.0,276.9 209.0,276.9 214.0,276.9 219.0,276.9 224.0,276.9 229.0,276.9 234.0,276.9 239.0,276.9 244.0,276.9 249.0,276.9 254.0,276.9 259.0,276.9 264.0,276.9 269.0,276.9 274.0,276.9 279.0,276.9 284.0,276.9 289.0,276.9 294.0,276.9 299.0,276.9 304.0,276.9 309.0,276.9 314.0,276.9 319.0,276.9 324.0,276.9 329.0,276.9 334.0,276.9 339.0,276.9 344.0,276.9 349.0,276.9 354.0,276.9 359.0,276.9 364.0,276.9 369.0,276.9 374.0,276.9 379.0,276.9 384.0,276.9 389.0,276.9 394.0,276.9 399.0,276.9 404.0,276.9 409.0,276.9 414.0,276.9 419.0,276.9 424.0,276.9 429.0,276.9 434.0,276.9 439.0,276.9 444.0,276.9 449.0,276.9 454.0,276.9 459.0,276.9 464.0,276.9 469.0,276.9 474.0,276.9 479.0,276.9 484.0,276.9 489.0,276.9 494.0,276.9 499.0,276.9 504.0,276.9 509.0,276.9 514.0,276.9 519.0,276.9 524.0,276.9 529.0,276.9 534.0,276.9 539.0,276.9 544.0,276.9 549.0,276.9 554.0,276.9 559.0,276.9 564.0,276.9 569.0,276.9 574.0,276.9 579.0,276.9 584.0,276.9 589.0,276.9 594.0,276.9 599.0,276.9 604.0,276.9 609.0,276.9 614.0,276.9 619.0,276.9 624.0,276.9 629.0,276.9 634.0,276.9 639.0,276.9 644.0,276.9 649.0,276.9 654.0,276.9 659.0,276.9 664.0,276.9 669.0,276.9 674.0,276.9 679.0,276.9 684.0,276.9 689.0,276.9 694.0,276.9 699.0,276.9 704.0,276.9 709.0,276.9 714.0,276.9 719.0,276.9 724.0,276.9 729.0,276.9 734.0,276.9 739.0,276.9 744.0,276.9 749.0,276.9 754.0,276.9 759.0,276.9 764.0,276.9 769.0,276.9 774.0,276.9 779.0,276.9 784.0,276.9 789.0,276.9 794.0,276.9 799.0,276.9 804.0,276.9 809.0,276.9 814.0,276.9 819.0,276.9 824.0,276.9 829.0,276.9 834.0,276.9 839.0,276.9 844.0,276.9 849.0,276.9 854.0,276.9 859.0,276.9 864.0,276.9 869.0,276.9 874.0,276.9 879.0,276.9 884.0,276.9 889.0,276.9 894.0,276.9 899.0,276.9 904.0,276.9 909.0,276.9 914.0,270.1 919.0,282.7 924.0,278.4 929.0,229.9 934.0,254.5 939.0,253.0 944.0,204.0 949.0,269.8 954.0,254.9 959.0,251.6 964.0,282.3" fill="none" stroke="#111" stroke-width="1.4"/>
<text x="54.0" y="306" class="tiny">sep</text>
<text x="119.0" y="306" class="tiny">oct</text>
<text x="194.0" y="306" class="tiny">nov</text>
<text x="269.0" y="306" class="tiny">dec</text>
<text x="349.0" y="306" class="tiny">jan</text>
<text x="424.0" y="306" class="tiny">feb</text>
<text x="494.0" y="306" class="tiny">mar</text>
<text x="574.0" y="306" class="tiny">apr</text>
<text x="649.0" y="306" class="tiny">may</text>
<text x="724.0" y="306" class="tiny">jun</text>
<text x="799.0" y="306" class="tiny">jul</text>
<text x="879.0" y="306" class="tiny">aug</text>
<text x="954.0" y="306" class="tiny">sep</text>
<line x1="54" y1="284" x2="964" y2="284" class="axis"/>
</svg>
